<svg xmlns="http://www.w3.org/2000/svg" viewBox="0 0 512 512">
  <defs>
    <linearGradient id="g" x1="0" y1="0" x2="1" y2="1">
      <stop offset="0" stop-color="#65d6ff"/>
      <stop offset="1" stop-color="#a2f5bf"/>
    </linearGradient>
  </defs>
  <rect width="512" height="512" rx="112" fill="#08111f"/>
  <rect x="54" y="54" width="404" height="404" rx="88" fill="url(#g)" opacity="0.24"/>
  <path d="M166 320c-42 0-72-29-72-65s30-64 72-64c27 0 49 11 62 31l-37 22c-5-9-14-14-25-14-18 0-30 11-30 25s12 26 30 26c11 0 20-5 25-14l37 22c-13 19-35 31-62 31Zm92-126h78c49 0 82 26 82 63s-33 63-82 63h-36v52h-42V194Zm76 87c26 0 41-9 41-24s-15-24-41-24h-34v48h34Z" fill="#f6f9ff"/>
</svg>
